<svg width="650" height="96" viewBox="0 0 650 96" fill="none" xmlns="http://www.w3.org/2000/svg">
<path fill-rule="evenodd" clip-rule="evenodd" d="M523.6 73.0123L526.139 57.7076H464.879L465.298 55.2666C467.335 43.034 469.373 30.8286 471.382 18.596L471.689 16.8406H532.949L535.545 1.28918H455.083L443.166 73.0123H523.6Z" fill="white"/>
<path fill-rule="evenodd" clip-rule="evenodd" d="M266.531 53.6208L268.261 50.7683C269.098 49.397 269.963 48.0804 270.856 46.7365C271.917 45.1731 272.978 43.6098 274.066 42.0464C275.434 40.0716 276.829 38.1243 278.252 36.2043C280.094 33.681 281.964 31.1303 283.806 28.5795L299.212 7.32318C300.747 5.21126 302.589 3.37364 304.794 1.94741C306.971 0.576038 309.399 0 311.938 0C314.339 0 316.488 0.630856 318.385 2.1668C320.423 3.81245 321.26 6.41806 321.595 8.94139L329.214 72.9846H309.482L306.971 48.3273C306.552 44.5972 306.161 40.8945 305.826 37.1643C305.547 34.065 305.38 30.9657 305.296 27.8664L305.157 22.902L302.449 27.071C300.58 29.9783 298.682 32.8581 296.784 35.738C294.133 39.7699 291.453 43.7744 288.69 47.7239L275.573 66.5117C274.568 67.9928 273.452 69.4739 272.112 70.6807C271.163 71.5584 270.103 72.3812 268.959 72.9572C268.01 73.4509 266.977 73.8074 265.917 73.972C264.689 74.164 263.461 74.2463 262.233 74.2463C261.032 74.2463 259.832 74.164 258.632 73.9994C257.711 73.8623 256.846 73.5332 256.065 73.0395C255.199 72.4909 254.446 71.7229 253.832 70.9001C252.967 69.7482 252.325 68.2671 251.85 66.9232L244.985 47.9981C244.175 45.7217 243.366 43.4727 242.585 41.1962C241.943 39.386 241.301 37.5483 240.659 35.738C240.129 34.3118 239.626 32.8582 239.208 31.4045C238.817 30.088 238.426 28.7989 238.035 27.4824L236.696 23.0392L235.105 27.4001C233.961 30.5269 232.733 33.5988 231.477 36.6706C229.914 40.4282 228.351 44.1583 226.732 47.8885L215.792 73.0395H196.674L225.811 9.43507C227.123 6.58261 228.965 4.00443 231.644 2.33135C233.933 0.877697 236.417 0.0549086 239.124 0.0549086C241.301 0.0549086 243.561 0.466331 245.32 1.86513C247.022 3.20908 248.166 4.99186 248.92 6.99406L257.293 28.1681C258.297 30.7189 259.302 33.2696 260.279 35.8203C261.033 37.7677 261.786 39.715 262.512 41.6624C263.098 43.1983 263.628 44.7617 264.158 46.2976C264.605 47.669 265.079 49.0678 265.526 50.4392L266.531 53.6208Z" fill="white"/>
<path fill-rule="evenodd" clip-rule="evenodd" d="M347.048 1.28918C343.057 25.206 339.093 49.1229 335.13 73.0122H354.22C357.262 54.7181 360.304 36.4239 363.346 18.1297L363.653 16.3743H412.048C418.048 16.3743 422.207 21.5307 421.23 27.4551C420.281 33.1326 414.922 37.8501 409.173 37.8501L369.738 37.8227L367.226 52.9078L396.446 52.9353L409.703 73.0396H435.547C430.719 66.5667 426.086 59.9292 420.979 53.7306L419.22 51.5913L421.76 50.4668C431.249 46.2704 438.924 37.2193 440.654 26.7968C442.971 12.8911 433.761 1.31664 419.667 1.31664H347.048V1.28918Z" fill="white"/>
<path fill-rule="evenodd" clip-rule="evenodd" d="M98.4344 0.959839H39.5464C21.6288 0.959839 4.71594 15.853 1.75759 33.5986L0.445863 41.4429C-2.45667 58.8594 9.09762 73.3959 26.7919 73.3959H86.4056L89.029 57.6251H32.8761C23.6661 57.6251 17.4145 49.8357 18.9216 40.7572L20.2333 32.9129C21.7125 24.0812 30.0573 16.7307 38.9882 16.7307H95.8388L98.4344 0.959839Z" fill="white"/>
<path fill-rule="evenodd" clip-rule="evenodd" d="M165.751 57.5977H127.851C118.641 57.5977 112.389 49.8083 113.896 40.7297L115.208 32.8855C116.687 24.0539 125.032 16.7032 133.963 16.7032H171.863C181.073 16.7032 187.325 24.4927 185.818 33.5712L184.506 41.4154C183.055 50.2471 174.682 57.5977 165.751 57.5977ZM177.696 0.959839H135.386C117.469 0.959839 100.556 15.853 97.5974 33.5986L96.2857 41.4429C93.3832 58.8594 104.938 73.3959 122.632 73.3959H164.97C182.887 73.3959 199.8 58.5028 202.759 40.7572L204.07 32.9129C206.945 15.469 195.391 0.959839 177.696 0.959839Z" fill="white"/>
<path fill-rule="evenodd" clip-rule="evenodd" d="M545.955 1.28918L577.436 36.753L506.603 95.5576H532.335L603.531 35.7931L572.692 1.28918H545.955Z" fill="#FFC21B"/>
<path fill-rule="evenodd" clip-rule="evenodd" d="M593.903 51.2896L613.188 73.0123H639.897L609.197 38.4261L593.903 51.2896ZM609.783 34.2571L650 1.28918H624.296L598.927 22.0793L609.783 34.2571Z" fill="white"/>
<path fill-rule="evenodd" clip-rule="evenodd" d="M478.472 30.637L476.295 43.6651H528.485L530.662 30.637H478.472Z" fill="white"/>
</svg>
